<svg version="1.1"
     baseProfile="full"
     xmlns="http://www.w3.org/2000/svg">
    <symbol  viewBox="0 0 30 30" id="user_logo">
        <path d="M15 7C12.7909 7 11 8.79086 11 11C11 13.2091 12.7909 15 15 15C17.2091 15 19 13.2091 19 11C19 8.79086 17.2091 7 15 7ZM9 11C9 7.68629 11.6863 5 15 5C18.3137 5 21 7.68629 21 11C21 14.3137 18.3137 17 15 17C11.6863 17 9 14.3137 9 11ZM11 21C9.34315 21 8 22.3431 8 24C8 24.5523 7.55228 25 7 25C6.44772 25 6 24.5523 6 24C6 21.2386 8.23858 19 11 19H19C21.7614 19 24 21.2386 24 24C24 24.5523 23.5523 25 23 25C22.4477 25 22 24.5523 22 24C22 22.3431 20.6569 21 19 21H11Z" fill="#393948"/>
    </symbol>

    <symbol  viewBox="0 0 143 142" id="success">
    <g filter="url(#filter0_d_1975_12873)">
        <rect x="21.5" y="17" width="100" height="100" rx="20" fill="white"/>
        <path d="M54.4093 64.2254C55.1691 63.4236 56.435 63.3895 57.2368 64.1492L67.0766 73.4729L87.0996 52.3415C87.8593 51.5397 89.1252 51.5056 89.927 52.2654L91.8627 54.0995C92.6645 54.8593 92.6986 56.1251 91.9388 56.9269L71.9158 78.0584L68.2016 81.9781C67.4419 82.7799 66.176 82.814 65.3742 82.0543L52.1469 69.5208C51.3451 68.7611 51.311 67.4952 52.0708 66.6934L54.4093 64.2254Z" fill="#359866"/>
    </g>
    <defs>
        <filter id="filter0_d_1975_12873" x="0.5" y="0" width="142" height="142" filterUnits="userSpaceOnUse" color-interpolation-filters="sRGB">
        <feFlood flood-opacity="0" result="BackgroundImageFix"/>
        <feColorMatrix in="SourceAlpha" type="matrix" values="0 0 0 0 0 0 0 0 0 0 0 0 0 0 0 0 0 0 127 0" result="hardAlpha"/>
        <feOffset dy="4"/>
        <feGaussianBlur stdDeviation="10.5"/>
        <feComposite in2="hardAlpha" operator="out"/>
        <feColorMatrix type="matrix" values="0 0 0 0 0 0 0 0 0 0 0 0 0 0 0 0 0 0 0.05 0"/>
        <feBlend mode="normal" in2="BackgroundImageFix" result="effect1_dropShadow_1975_12873"/>
        <feBlend mode="normal" in="SourceGraphic" in2="effect1_dropShadow_1975_12873" result="shape"/>
        </filter>
    </defs>
</symbol>

<symbol  viewBox="0 0 14 14" id="close">
    <path d="M0.292893 0.292893C0.683417 -0.0976311 1.31658 -0.0976311 1.70711 0.292893L7 5.58579L12.2929 0.292893C12.6834 -0.0976311 13.3166 -0.0976311 13.7071 0.292893C14.0976 0.683417 14.0976 1.31658 13.7071 1.70711L8.41421 7L13.7071 12.2929C14.0976 12.6834 14.0976 13.3166 13.7071 13.7071C13.3166 14.0976 12.6834 14.0976 12.2929 13.7071L7 8.41421L1.70711 13.7071C1.31658 14.0976 0.683417 14.0976 0.292893 13.7071C-0.0976311 13.3166 -0.0976311 12.6834 0.292893 12.2929L5.58579 7L0.292893 1.70711C-0.0976311 1.31658 -0.0976311 0.683417 0.292893 0.292893Z" fill="#359866"/>
</symbol>

<symbol viewBox="0 0 24 24" id="delete">
    <path d="M7 4C7 2.89543 7.89543 2 9 2H15C16.1046 2 17 2.89543 17 4V6H18.9897C18.9959 5.99994 19.0021 5.99994 19.0083 6H21C21.5523 6 22 6.44772 22 7C22 7.55228 21.5523 8 21 8H19.9311L19.0638 20.1425C18.989 21.1891 18.1182 22 17.0689 22H6.93112C5.88184 22 5.01096 21.1891 4.9362 20.1425L4.06888 8H3C2.44772 8 2 7.55228 2 7C2 6.44772 2.44772 6 3 6H4.99174C4.99795 5.99994 5.00414 5.99994 5.01032 6H7V4ZM9 6H15V4H9V6ZM6.07398 8L6.93112 20H17.0689L17.926 8H6.07398ZM10 10C10.5523 10 11 10.4477 11 11V17C11 17.5523 10.5523 18 10 18C9.44772 18 9 17.5523 9 17V11C9 10.4477 9.44772 10 10 10ZM14 10C14.5523 10 15 10.4477 15 11V17C15 17.5523 14.5523 18 14 18C13.4477 18 13 17.5523 13 17V11C13 10.4477 13.4477 10 14 10Z" fill="#D84949"/>
</symbol>

<symbol viewBox="0 0 143 142" id="delete_user">
    <g filter="url(#filter0_d_998_6945)">
    <rect x="21.5" y="17" width="100" height="100" rx="20" fill="white"/>
    <path d="M63.6654 53.6663C63.6654 51.8254 65.1577 50.333 66.9987 50.333H76.9987C78.8396 50.333 80.332 51.8254 80.332 53.6663V56.9997H83.6482C83.6585 56.9996 83.6688 56.9996 83.6791 56.9997H86.9987C87.9192 56.9997 88.6654 57.7459 88.6654 58.6663C88.6654 59.5868 87.9192 60.333 86.9987 60.333H85.2172L83.7717 80.5705C83.6471 82.3148 82.1956 83.6663 80.4468 83.6663H63.5506C61.8018 83.6663 60.3503 82.3149 60.2257 80.5705L58.7802 60.333H56.9987C56.0782 60.333 55.332 59.5868 55.332 58.6663C55.332 57.7459 56.0782 56.9997 56.9987 56.9997H60.3183C60.3286 56.9996 60.3389 56.9996 60.3492 56.9997H63.6654V53.6663ZM66.9987 56.9997H76.9987V53.6663H66.9987V56.9997ZM62.122 60.333L63.5506 80.333H80.4468L81.8754 60.333H62.122ZM68.6654 63.6663C69.5858 63.6663 70.332 64.4125 70.332 65.333V75.333C70.332 76.2535 69.5858 76.9997 68.6654 76.9997C67.7449 76.9997 66.9987 76.2535 66.9987 75.333V65.333C66.9987 64.4125 67.7449 63.6663 68.6654 63.6663ZM75.332 63.6663C76.2525 63.6663 76.9987 64.4125 76.9987 65.333V75.333C76.9987 76.2535 76.2525 76.9997 75.332 76.9997C74.4116 76.9997 73.6654 76.2535 73.6654 75.333V65.333C73.6654 64.4125 74.4116 63.6663 75.332 63.6663Z" fill="#D84949"/>
    </g>
    <defs>
        <filter id="filter0_d_998_6945" x="0.5" y="0" width="142" height="142" filterUnits="userSpaceOnUse" color-interpolation-filters="sRGB">
            <feFlood flood-opacity="0" result="BackgroundImageFix"/>
            <feColorMatrix in="SourceAlpha" type="matrix" values="0 0 0 0 0 0 0 0 0 0 0 0 0 0 0 0 0 0 127 0" result="hardAlpha"/>
            <feOffset dy="4"/>
            <feGaussianBlur stdDeviation="10.5"/>
            <feComposite in2="hardAlpha" operator="out"/>
            <feColorMatrix type="matrix" values="0 0 0 0 0 0 0 0 0 0 0 0 0 0 0 0 0 0 0.05 0"/>
            <feBlend mode="normal" in2="BackgroundImageFix" result="effect1_dropShadow_998_6945"/>
            <feBlend mode="normal" in="SourceGraphic" in2="effect1_dropShadow_998_6945" result="shape"/>
        </filter>
    </defs>
</symbol>




</svg>