<svg version="1.1"
     baseProfile="full"
     xmlns="http://www.w3.org/2000/svg">
    <symbol  viewBox="0 0 30 30" id="user_logo">
        <path d="M15 7C12.7909 7 11 8.79086 11 11C11 13.2091 12.7909 15 15 15C17.2091 15 19 13.2091 19 11C19 8.79086 17.2091 7 15 7ZM9 11C9 7.68629 11.6863 5 15 5C18.3137 5 21 7.68629 21 11C21 14.3137 18.3137 17 15 17C11.6863 17 9 14.3137 9 11ZM11 21C9.34315 21 8 22.3431 8 24C8 24.5523 7.55228 25 7 25C6.44772 25 6 24.5523 6 24C6 21.2386 8.23858 19 11 19H19C21.7614 19 24 21.2386 24 24C24 24.5523 23.5523 25 23 25C22.4477 25 22 24.5523 22 24C22 22.3431 20.6569 21 19 21H11Z" fill="#393948"/>
    </symbol>

    <symbol  viewBox="0 0 143 142" id="success">
    <g filter="url(#filter0_d_1975_12873)">
        <rect x="21.5" y="17" width="100" height="100" rx="20" fill="white"/>
        <path d="M54.4093 64.2254C55.1691 63.4236 56.435 63.3895 57.2368 64.1492L67.0766 73.4729L87.0996 52.3415C87.8593 51.5397 89.1252 51.5056 89.927 52.2654L91.8627 54.0995C92.6645 54.8593 92.6986 56.1251 91.9388 56.9269L71.9158 78.0584L68.2016 81.9781C67.4419 82.7799 66.176 82.814 65.3742 82.0543L52.1469 69.5208C51.3451 68.7611 51.311 67.4952 52.0708 66.6934L54.4093 64.2254Z" fill="#359866"/>
    </g>
    <defs>
        <filter id="filter0_d_1975_12873" x="0.5" y="0" width="142" height="142" filterUnits="userSpaceOnUse" color-interpolation-filters="sRGB">
        <feFlood flood-opacity="0" result="BackgroundImageFix"/>
        <feColorMatrix in="SourceAlpha" type="matrix" values="0 0 0 0 0 0 0 0 0 0 0 0 0 0 0 0 0 0 127 0" result="hardAlpha"/>
        <feOffset dy="4"/>
        <feGaussianBlur stdDeviation="10.5"/>
        <feComposite in2="hardAlpha" operator="out"/>
        <feColorMatrix type="matrix" values="0 0 0 0 0 0 0 0 0 0 0 0 0 0 0 0 0 0 0.05 0"/>
        <feBlend mode="normal" in2="BackgroundImageFix" result="effect1_dropShadow_1975_12873"/>
        <feBlend mode="normal" in="SourceGraphic" in2="effect1_dropShadow_1975_12873" result="shape"/>
        </filter>
    </defs>
</symbol>

<symbol  viewBox="0 0 14 14" id="close">
    <path d="M0.292893 0.292893C0.683417 -0.0976311 1.31658 -0.0976311 1.70711 0.292893L7 5.58579L12.2929 0.292893C12.6834 -0.0976311 13.3166 -0.0976311 13.7071 0.292893C14.0976 0.683417 14.0976 1.31658 13.7071 1.70711L8.41421 7L13.7071 12.2929C14.0976 12.6834 14.0976 13.3166 13.7071 13.7071C13.3166 14.0976 12.6834 14.0976 12.2929 13.7071L7 8.41421L1.70711 13.7071C1.31658 14.0976 0.683417 14.0976 0.292893 13.7071C-0.0976311 13.3166 -0.0976311 12.6834 0.292893 12.2929L5.58579 7L0.292893 1.70711C-0.0976311 1.31658 -0.0976311 0.683417 0.292893 0.292893Z" fill="#359866"/>
</symbol>


</svg>