<svg version="1.1"
     baseProfile="full"
     xmlns="http://www.w3.org/2000/svg">
    <symbol  viewBox="0 0 30 30" id="user_logo">
        <path d="M15 7C12.7909 7 11 8.79086 11 11C11 13.2091 12.7909 15 15 15C17.2091 15 19 13.2091 19 11C19 8.79086 17.2091 7 15 7ZM9 11C9 7.68629 11.6863 5 15 5C18.3137 5 21 7.68629 21 11C21 14.3137 18.3137 17 15 17C11.6863 17 9 14.3137 9 11ZM11 21C9.34315 21 8 22.3431 8 24C8 24.5523 7.55228 25 7 25C6.44772 25 6 24.5523 6 24C6 21.2386 8.23858 19 11 19H19C21.7614 19 24 21.2386 24 24C24 24.5523 23.5523 25 23 25C22.4477 25 22 24.5523 22 24C22 22.3431 20.6569 21 19 21H11Z" fill="#393948"/>
    </symbol>
</svg>